<mxfile host="drawio-plugin" modified="2021-11-25T11:44:53.445Z" agent="5.0 (Macintosh; Intel Mac OS X 12_0_1) AppleWebKit/537.36 (KHTML, like Gecko) Chrome/89.0.4389.114 Safari/537.36" etag="l5WRZ86BSRoZwvoA3NmF" version="14.7.4" type="embed"><diagram id="hpxQqPf2575Vpfl7et5X" name="Page-1"><mxGraphModel dx="1405" dy="760" grid="1" gridSize="10" guides="1" tooltips="1" connect="1" arrows="1" fold="1" page="1" pageScale="1" pageWidth="1700" pageHeight="1100" math="0" shadow="0"><root><mxCell id="0"/><mxCell id="1" parent="0"/><mxCell id="2" value="Excursion" style="shape=table;startSize=30;container=1;collapsible=1;childLayout=tableLayout;fixedRows=1;rowLines=0;fontStyle=1;align=center;resizeLast=1;" parent="1" vertex="1"><mxGeometry x="670" y="440" width="160" height="190" as="geometry"/></mxCell><mxCell id="3" value="" style="shape=partialRectangle;collapsible=0;dropTarget=0;pointerEvents=0;fillColor=none;top=0;left=0;bottom=1;right=0;points=[[0,0.5],[1,0.5]];portConstraint=eastwest;" parent="2" vertex="1"><mxGeometry y="30" width="160" height="30" as="geometry"/></mxCell><mxCell id="4" value="PK" style="shape=partialRectangle;connectable=0;fillColor=none;top=0;left=0;bottom=0;right=0;fontStyle=1;overflow=hidden;" parent="3" vertex="1"><mxGeometry width="30" height="30" as="geometry"/></mxCell><mxCell id="5" value="UniqueID" style="shape=partialRectangle;connectable=0;fillColor=none;top=0;left=0;bottom=0;right=0;align=left;spacingLeft=6;fontStyle=5;overflow=hidden;" parent="3" vertex="1"><mxGeometry x="30" width="130" height="30" as="geometry"/></mxCell><mxCell id="6" value="" style="shape=partialRectangle;collapsible=0;dropTarget=0;pointerEvents=0;fillColor=none;top=0;left=0;bottom=0;right=0;points=[[0,0.5],[1,0.5]];portConstraint=eastwest;" parent="2" vertex="1"><mxGeometry y="60" width="160" height="30" as="geometry"/></mxCell><mxCell id="7" value="" style="shape=partialRectangle;connectable=0;fillColor=none;top=0;left=0;bottom=0;right=0;editable=1;overflow=hidden;" parent="6" vertex="1"><mxGeometry width="30" height="30" as="geometry"/></mxCell><mxCell id="8" value="Name" style="shape=partialRectangle;connectable=0;fillColor=none;top=0;left=0;bottom=0;right=0;align=left;spacingLeft=6;overflow=hidden;" parent="6" vertex="1"><mxGeometry x="30" width="130" height="30" as="geometry"/></mxCell><mxCell id="9" value="" style="shape=partialRectangle;collapsible=0;dropTarget=0;pointerEvents=0;fillColor=none;top=0;left=0;bottom=0;right=0;points=[[0,0.5],[1,0.5]];portConstraint=eastwest;" parent="2" vertex="1"><mxGeometry y="90" width="160" height="30" as="geometry"/></mxCell><mxCell id="10" value="" style="shape=partialRectangle;connectable=0;fillColor=none;top=0;left=0;bottom=0;right=0;editable=1;overflow=hidden;" parent="9" vertex="1"><mxGeometry width="30" height="30" as="geometry"/></mxCell><mxCell id="11" value="Price" style="shape=partialRectangle;connectable=0;fillColor=none;top=0;left=0;bottom=0;right=0;align=left;spacingLeft=6;overflow=hidden;" parent="9" vertex="1"><mxGeometry x="30" width="130" height="30" as="geometry"/></mxCell><mxCell id="12" value="" style="shape=partialRectangle;collapsible=0;dropTarget=0;pointerEvents=0;fillColor=none;top=0;left=0;bottom=0;right=0;points=[[0,0.5],[1,0.5]];portConstraint=eastwest;" parent="2" vertex="1"><mxGeometry y="120" width="160" height="30" as="geometry"/></mxCell><mxCell id="13" value="" style="shape=partialRectangle;connectable=0;fillColor=none;top=0;left=0;bottom=0;right=0;editable=1;overflow=hidden;" parent="12" vertex="1"><mxGeometry width="30" height="30" as="geometry"/></mxCell><mxCell id="14" value="Description" style="shape=partialRectangle;connectable=0;fillColor=none;top=0;left=0;bottom=0;right=0;align=left;spacingLeft=6;overflow=hidden;" parent="12" vertex="1"><mxGeometry x="30" width="130" height="30" as="geometry"/></mxCell><mxCell id="152" value="" style="shape=partialRectangle;collapsible=0;dropTarget=0;pointerEvents=0;fillColor=none;top=0;left=0;bottom=0;right=0;points=[[0,0.5],[1,0.5]];portConstraint=eastwest;" parent="2" vertex="1"><mxGeometry y="150" width="160" height="30" as="geometry"/></mxCell><mxCell id="153" value="" style="shape=partialRectangle;connectable=0;fillColor=none;top=0;left=0;bottom=0;right=0;editable=1;overflow=hidden;" parent="152" vertex="1"><mxGeometry width="30" height="30" as="geometry"/></mxCell><mxCell id="154" value="Shot description" style="shape=partialRectangle;connectable=0;fillColor=none;top=0;left=0;bottom=0;right=0;align=left;spacingLeft=6;overflow=hidden;" parent="152" vertex="1"><mxGeometry x="30" width="130" height="30" as="geometry"/></mxCell><mxCell id="15" value="City" style="shape=table;startSize=30;container=1;collapsible=1;childLayout=tableLayout;fixedRows=1;rowLines=0;fontStyle=1;align=center;resizeLast=1;" parent="1" vertex="1"><mxGeometry x="670" y="44" width="160" height="129" as="geometry"/></mxCell><mxCell id="16" value="" style="shape=partialRectangle;collapsible=0;dropTarget=0;pointerEvents=0;fillColor=none;top=0;left=0;bottom=1;right=0;points=[[0,0.5],[1,0.5]];portConstraint=eastwest;" parent="15" vertex="1"><mxGeometry y="30" width="160" height="30" as="geometry"/></mxCell><mxCell id="17" value="PK" style="shape=partialRectangle;connectable=0;fillColor=none;top=0;left=0;bottom=0;right=0;fontStyle=1;overflow=hidden;" parent="16" vertex="1"><mxGeometry width="30" height="30" as="geometry"/></mxCell><mxCell id="18" value="UniqueID" style="shape=partialRectangle;connectable=0;fillColor=none;top=0;left=0;bottom=0;right=0;align=left;spacingLeft=6;fontStyle=5;overflow=hidden;" parent="16" vertex="1"><mxGeometry x="30" width="130" height="30" as="geometry"/></mxCell><mxCell id="19" value="" style="shape=partialRectangle;collapsible=0;dropTarget=0;pointerEvents=0;fillColor=none;top=0;left=0;bottom=0;right=0;points=[[0,0.5],[1,0.5]];portConstraint=eastwest;" parent="15" vertex="1"><mxGeometry y="60" width="160" height="30" as="geometry"/></mxCell><mxCell id="20" value="" style="shape=partialRectangle;connectable=0;fillColor=none;top=0;left=0;bottom=0;right=0;editable=1;overflow=hidden;" parent="19" vertex="1"><mxGeometry width="30" height="30" as="geometry"/></mxCell><mxCell id="21" value="Name" style="shape=partialRectangle;connectable=0;fillColor=none;top=0;left=0;bottom=0;right=0;align=left;spacingLeft=6;overflow=hidden;" parent="19" vertex="1"><mxGeometry x="30" width="130" height="30" as="geometry"/></mxCell><mxCell id="189" value="" style="shape=partialRectangle;collapsible=0;dropTarget=0;pointerEvents=0;fillColor=none;top=0;left=0;bottom=0;right=0;points=[[0,0.5],[1,0.5]];portConstraint=eastwest;" parent="15" vertex="1"><mxGeometry y="90" width="160" height="30" as="geometry"/></mxCell><mxCell id="190" value="" style="shape=partialRectangle;connectable=0;fillColor=none;top=0;left=0;bottom=0;right=0;editable=1;overflow=hidden;" parent="189" vertex="1"><mxGeometry width="30" height="30" as="geometry"/></mxCell><mxCell id="191" value="View" style="shape=partialRectangle;connectable=0;fillColor=none;top=0;left=0;bottom=0;right=0;align=left;spacingLeft=6;overflow=hidden;" parent="189" vertex="1"><mxGeometry x="30" width="130" height="30" as="geometry"/></mxCell><mxCell id="28" value="Country" style="shape=table;startSize=30;container=1;collapsible=1;childLayout=tableLayout;fixedRows=1;rowLines=0;fontStyle=1;align=center;resizeLast=1;" parent="1" vertex="1"><mxGeometry x="430" y="44" width="160" height="129" as="geometry"/></mxCell><mxCell id="29" value="" style="shape=partialRectangle;collapsible=0;dropTarget=0;pointerEvents=0;fillColor=none;top=0;left=0;bottom=1;right=0;points=[[0,0.5],[1,0.5]];portConstraint=eastwest;" parent="28" vertex="1"><mxGeometry y="30" width="160" height="30" as="geometry"/></mxCell><mxCell id="30" value="PK" style="shape=partialRectangle;connectable=0;fillColor=none;top=0;left=0;bottom=0;right=0;fontStyle=1;overflow=hidden;" parent="29" vertex="1"><mxGeometry width="30" height="30" as="geometry"/></mxCell><mxCell id="31" value="UniqueID" style="shape=partialRectangle;connectable=0;fillColor=none;top=0;left=0;bottom=0;right=0;align=left;spacingLeft=6;fontStyle=5;overflow=hidden;" parent="29" vertex="1"><mxGeometry x="30" width="130" height="30" as="geometry"/></mxCell><mxCell id="32" value="" style="shape=partialRectangle;collapsible=0;dropTarget=0;pointerEvents=0;fillColor=none;top=0;left=0;bottom=0;right=0;points=[[0,0.5],[1,0.5]];portConstraint=eastwest;" parent="28" vertex="1"><mxGeometry y="60" width="160" height="30" as="geometry"/></mxCell><mxCell id="33" value="" style="shape=partialRectangle;connectable=0;fillColor=none;top=0;left=0;bottom=0;right=0;editable=1;overflow=hidden;" parent="32" vertex="1"><mxGeometry width="30" height="30" as="geometry"/></mxCell><mxCell id="34" value="Name" style="shape=partialRectangle;connectable=0;fillColor=none;top=0;left=0;bottom=0;right=0;align=left;spacingLeft=6;overflow=hidden;" parent="32" vertex="1"><mxGeometry x="30" width="130" height="30" as="geometry"/></mxCell><mxCell id="186" value="" style="shape=partialRectangle;collapsible=0;dropTarget=0;pointerEvents=0;fillColor=none;top=0;left=0;bottom=0;right=0;points=[[0,0.5],[1,0.5]];portConstraint=eastwest;" parent="28" vertex="1"><mxGeometry y="90" width="160" height="30" as="geometry"/></mxCell><mxCell id="187" value="" style="shape=partialRectangle;connectable=0;fillColor=none;top=0;left=0;bottom=0;right=0;editable=1;overflow=hidden;" parent="186" vertex="1"><mxGeometry width="30" height="30" as="geometry"/></mxCell><mxCell id="188" value="View" style="shape=partialRectangle;connectable=0;fillColor=none;top=0;left=0;bottom=0;right=0;align=left;spacingLeft=6;overflow=hidden;" parent="186" vertex="1"><mxGeometry x="30" width="130" height="30" as="geometry"/></mxCell><mxCell id="41" value="Place" style="shape=table;startSize=30;container=1;collapsible=1;childLayout=tableLayout;fixedRows=1;rowLines=0;fontStyle=1;align=center;resizeLast=1;" parent="1" vertex="1"><mxGeometry x="910" y="44" width="160" height="129" as="geometry"/></mxCell><mxCell id="42" value="" style="shape=partialRectangle;collapsible=0;dropTarget=0;pointerEvents=0;fillColor=none;top=0;left=0;bottom=1;right=0;points=[[0,0.5],[1,0.5]];portConstraint=eastwest;" parent="41" vertex="1"><mxGeometry y="30" width="160" height="30" as="geometry"/></mxCell><mxCell id="43" value="PK" style="shape=partialRectangle;connectable=0;fillColor=none;top=0;left=0;bottom=0;right=0;fontStyle=1;overflow=hidden;" parent="42" vertex="1"><mxGeometry width="30" height="30" as="geometry"/></mxCell><mxCell id="44" value="UniqueID" style="shape=partialRectangle;connectable=0;fillColor=none;top=0;left=0;bottom=0;right=0;align=left;spacingLeft=6;fontStyle=5;overflow=hidden;" parent="42" vertex="1"><mxGeometry x="30" width="130" height="30" as="geometry"/></mxCell><mxCell id="45" value="" style="shape=partialRectangle;collapsible=0;dropTarget=0;pointerEvents=0;fillColor=none;top=0;left=0;bottom=0;right=0;points=[[0,0.5],[1,0.5]];portConstraint=eastwest;" parent="41" vertex="1"><mxGeometry y="60" width="160" height="30" as="geometry"/></mxCell><mxCell id="46" value="" style="shape=partialRectangle;connectable=0;fillColor=none;top=0;left=0;bottom=0;right=0;editable=1;overflow=hidden;" parent="45" vertex="1"><mxGeometry width="30" height="30" as="geometry"/></mxCell><mxCell id="47" value="Name" style="shape=partialRectangle;connectable=0;fillColor=none;top=0;left=0;bottom=0;right=0;align=left;spacingLeft=6;overflow=hidden;" parent="45" vertex="1"><mxGeometry x="30" width="130" height="30" as="geometry"/></mxCell><mxCell id="192" value="" style="shape=partialRectangle;collapsible=0;dropTarget=0;pointerEvents=0;fillColor=none;top=0;left=0;bottom=0;right=0;points=[[0,0.5],[1,0.5]];portConstraint=eastwest;" parent="41" vertex="1"><mxGeometry y="90" width="160" height="30" as="geometry"/></mxCell><mxCell id="193" value="" style="shape=partialRectangle;connectable=0;fillColor=none;top=0;left=0;bottom=0;right=0;editable=1;overflow=hidden;" parent="192" vertex="1"><mxGeometry width="30" height="30" as="geometry"/></mxCell><mxCell id="194" value="View" style="shape=partialRectangle;connectable=0;fillColor=none;top=0;left=0;bottom=0;right=0;align=left;spacingLeft=6;overflow=hidden;" parent="192" vertex="1"><mxGeometry x="30" width="130" height="30" as="geometry"/></mxCell><mxCell id="54" value="" style="edgeStyle=entityRelationEdgeStyle;fontSize=12;html=1;endArrow=ERzeroToMany;startArrow=ERmandOne;" parent="1" source="28" target="15" edge="1"><mxGeometry width="100" height="100" relative="1" as="geometry"><mxPoint x="600" y="134" as="sourcePoint"/><mxPoint x="660" y="144" as="targetPoint"/></mxGeometry></mxCell><mxCell id="55" value="" style="edgeStyle=entityRelationEdgeStyle;fontSize=12;html=1;endArrow=ERzeroToMany;startArrow=ERmandOne;" parent="1" source="15" target="41" edge="1"><mxGeometry width="100" height="100" relative="1" as="geometry"><mxPoint x="850" y="144" as="sourcePoint"/><mxPoint x="680" y="134" as="targetPoint"/></mxGeometry></mxCell><mxCell id="56" value="" style="edgeStyle=entityRelationEdgeStyle;fontSize=12;html=1;endArrow=ERmandOne;startArrow=ERmandOne;" parent="1" source="28" target="2" edge="1"><mxGeometry width="100" height="100" relative="1" as="geometry"><mxPoint x="540" y="450" as="sourcePoint"/><mxPoint x="640" y="350" as="targetPoint"/></mxGeometry></mxCell><mxCell id="57" value="" style="edgeStyle=entityRelationEdgeStyle;fontSize=12;html=1;endArrow=ERmandOne;startArrow=ERmandOne;" parent="1" source="15" target="2" edge="1"><mxGeometry width="100" height="100" relative="1" as="geometry"><mxPoint x="600.0000000000001" y="170" as="sourcePoint"/><mxPoint x="680" y="450" as="targetPoint"/></mxGeometry></mxCell><mxCell id="58" value="" style="edgeStyle=entityRelationEdgeStyle;fontSize=12;html=1;endArrow=ERzeroToMany;startArrow=ERmandOne;" parent="1" source="41" target="59" edge="1"><mxGeometry width="100" height="100" relative="1" as="geometry"><mxPoint x="840" y="170" as="sourcePoint"/><mxPoint x="1130" y="310" as="targetPoint"/></mxGeometry></mxCell><mxCell id="59" value="Excursion_Place" style="shape=table;startSize=30;container=1;collapsible=1;childLayout=tableLayout;fixedRows=1;rowLines=0;fontStyle=1;align=center;resizeLast=1;" parent="1" vertex="1"><mxGeometry x="1130" y="410" width="160" height="160" as="geometry"/></mxCell><mxCell id="60" value="" style="shape=partialRectangle;collapsible=0;dropTarget=0;pointerEvents=0;fillColor=none;top=0;left=0;bottom=1;right=0;points=[[0,0.5],[1,0.5]];portConstraint=eastwest;" parent="59" vertex="1"><mxGeometry y="30" width="160" height="30" as="geometry"/></mxCell><mxCell id="61" value="PK" style="shape=partialRectangle;connectable=0;fillColor=none;top=0;left=0;bottom=0;right=0;fontStyle=1;overflow=hidden;" parent="60" vertex="1"><mxGeometry width="30" height="30" as="geometry"/></mxCell><mxCell id="62" value="UniqueID" style="shape=partialRectangle;connectable=0;fillColor=none;top=0;left=0;bottom=0;right=0;align=left;spacingLeft=6;fontStyle=5;overflow=hidden;" parent="60" vertex="1"><mxGeometry x="30" width="130" height="30" as="geometry"/></mxCell><mxCell id="63" value="" style="shape=partialRectangle;collapsible=0;dropTarget=0;pointerEvents=0;fillColor=none;top=0;left=0;bottom=0;right=0;points=[[0,0.5],[1,0.5]];portConstraint=eastwest;" parent="59" vertex="1"><mxGeometry y="60" width="160" height="30" as="geometry"/></mxCell><mxCell id="64" value="" style="shape=partialRectangle;connectable=0;fillColor=none;top=0;left=0;bottom=0;right=0;editable=1;overflow=hidden;" parent="63" vertex="1"><mxGeometry width="30" height="30" as="geometry"/></mxCell><mxCell id="65" value="Text" style="shape=partialRectangle;connectable=0;fillColor=none;top=0;left=0;bottom=0;right=0;align=left;spacingLeft=6;overflow=hidden;" parent="63" vertex="1"><mxGeometry x="30" width="130" height="30" as="geometry"/></mxCell><mxCell id="66" value="" style="shape=partialRectangle;collapsible=0;dropTarget=0;pointerEvents=0;fillColor=none;top=0;left=0;bottom=0;right=0;points=[[0,0.5],[1,0.5]];portConstraint=eastwest;" parent="59" vertex="1"><mxGeometry y="90" width="160" height="30" as="geometry"/></mxCell><mxCell id="67" value="" style="shape=partialRectangle;connectable=0;fillColor=none;top=0;left=0;bottom=0;right=0;editable=1;overflow=hidden;" parent="66" vertex="1"><mxGeometry width="30" height="30" as="geometry"/></mxCell><mxCell id="68" value="Order" style="shape=partialRectangle;connectable=0;fillColor=none;top=0;left=0;bottom=0;right=0;align=left;spacingLeft=6;overflow=hidden;" parent="66" vertex="1"><mxGeometry x="30" width="130" height="30" as="geometry"/></mxCell><mxCell id="69" value="" style="shape=partialRectangle;collapsible=0;dropTarget=0;pointerEvents=0;fillColor=none;top=0;left=0;bottom=0;right=0;points=[[0,0.5],[1,0.5]];portConstraint=eastwest;" parent="59" vertex="1"><mxGeometry y="120" width="160" height="30" as="geometry"/></mxCell><mxCell id="70" value="" style="shape=partialRectangle;connectable=0;fillColor=none;top=0;left=0;bottom=0;right=0;editable=1;overflow=hidden;" parent="69" vertex="1"><mxGeometry width="30" height="30" as="geometry"/></mxCell><mxCell id="71" value="Coordinat" style="shape=partialRectangle;connectable=0;fillColor=none;top=0;left=0;bottom=0;right=0;align=left;spacingLeft=6;overflow=hidden;" parent="69" vertex="1"><mxGeometry x="30" width="130" height="30" as="geometry"/></mxCell><mxCell id="72" value="" style="edgeStyle=entityRelationEdgeStyle;fontSize=12;html=1;endArrow=ERzeroToMany;startArrow=ERmandOne;" parent="1" source="2" target="59" edge="1"><mxGeometry width="100" height="100" relative="1" as="geometry"><mxPoint x="1080" y="170" as="sourcePoint"/><mxPoint x="1080" y="450" as="targetPoint"/></mxGeometry></mxCell><mxCell id="73" value="Details" style="shape=table;startSize=30;container=1;collapsible=1;childLayout=tableLayout;fixedRows=1;rowLines=0;fontStyle=1;align=center;resizeLast=1;" parent="1" vertex="1"><mxGeometry x="280" y="600" width="160" height="130" as="geometry"/></mxCell><mxCell id="74" value="" style="shape=partialRectangle;collapsible=0;dropTarget=0;pointerEvents=0;fillColor=none;top=0;left=0;bottom=1;right=0;points=[[0,0.5],[1,0.5]];portConstraint=eastwest;" parent="73" vertex="1"><mxGeometry y="30" width="160" height="30" as="geometry"/></mxCell><mxCell id="75" value="PK" style="shape=partialRectangle;connectable=0;fillColor=none;top=0;left=0;bottom=0;right=0;fontStyle=1;overflow=hidden;" parent="74" vertex="1"><mxGeometry width="30" height="30" as="geometry"/></mxCell><mxCell id="76" value="UniqueID" style="shape=partialRectangle;connectable=0;fillColor=none;top=0;left=0;bottom=0;right=0;align=left;spacingLeft=6;fontStyle=5;overflow=hidden;" parent="74" vertex="1"><mxGeometry x="30" width="130" height="30" as="geometry"/></mxCell><mxCell id="77" value="" style="shape=partialRectangle;collapsible=0;dropTarget=0;pointerEvents=0;fillColor=none;top=0;left=0;bottom=0;right=0;points=[[0,0.5],[1,0.5]];portConstraint=eastwest;" parent="73" vertex="1"><mxGeometry y="60" width="160" height="30" as="geometry"/></mxCell><mxCell id="78" value="" style="shape=partialRectangle;connectable=0;fillColor=none;top=0;left=0;bottom=0;right=0;editable=1;overflow=hidden;" parent="77" vertex="1"><mxGeometry width="30" height="30" as="geometry"/></mxCell><mxCell id="79" value="Type" style="shape=partialRectangle;connectable=0;fillColor=none;top=0;left=0;bottom=0;right=0;align=left;spacingLeft=6;overflow=hidden;" parent="77" vertex="1"><mxGeometry x="30" width="130" height="30" as="geometry"/></mxCell><mxCell id="80" value="" style="shape=partialRectangle;collapsible=0;dropTarget=0;pointerEvents=0;fillColor=none;top=0;left=0;bottom=0;right=0;points=[[0,0.5],[1,0.5]];portConstraint=eastwest;" parent="73" vertex="1"><mxGeometry y="90" width="160" height="30" as="geometry"/></mxCell><mxCell id="81" value="" style="shape=partialRectangle;connectable=0;fillColor=none;top=0;left=0;bottom=0;right=0;editable=1;overflow=hidden;" parent="80" vertex="1"><mxGeometry width="30" height="30" as="geometry"/></mxCell><mxCell id="82" value="Text" style="shape=partialRectangle;connectable=0;fillColor=none;top=0;left=0;bottom=0;right=0;align=left;spacingLeft=6;overflow=hidden;" parent="80" vertex="1"><mxGeometry x="30" width="130" height="30" as="geometry"/></mxCell><mxCell id="86" value="" style="edgeStyle=entityRelationEdgeStyle;fontSize=12;html=1;endArrow=ERzeroToMany;startArrow=ERmandOne;" parent="1" source="2" target="73" edge="1"><mxGeometry width="100" height="100" relative="1" as="geometry"><mxPoint x="840" y="530" as="sourcePoint"/><mxPoint x="920" y="530" as="targetPoint"/></mxGeometry></mxCell><mxCell id="87" value="Reviews" style="shape=table;startSize=30;container=1;collapsible=1;childLayout=tableLayout;fixedRows=1;rowLines=0;fontStyle=1;align=center;resizeLast=1;" parent="1" vertex="1"><mxGeometry x="680" y="960" width="160" height="130" as="geometry"/></mxCell><mxCell id="88" value="" style="shape=partialRectangle;collapsible=0;dropTarget=0;pointerEvents=0;fillColor=none;top=0;left=0;bottom=1;right=0;points=[[0,0.5],[1,0.5]];portConstraint=eastwest;" parent="87" vertex="1"><mxGeometry y="30" width="160" height="30" as="geometry"/></mxCell><mxCell id="89" value="PK" style="shape=partialRectangle;connectable=0;fillColor=none;top=0;left=0;bottom=0;right=0;fontStyle=1;overflow=hidden;" parent="88" vertex="1"><mxGeometry width="30" height="30" as="geometry"/></mxCell><mxCell id="90" value="UniqueID" style="shape=partialRectangle;connectable=0;fillColor=none;top=0;left=0;bottom=0;right=0;align=left;spacingLeft=6;fontStyle=5;overflow=hidden;" parent="88" vertex="1"><mxGeometry x="30" width="130" height="30" as="geometry"/></mxCell><mxCell id="91" value="" style="shape=partialRectangle;collapsible=0;dropTarget=0;pointerEvents=0;fillColor=none;top=0;left=0;bottom=0;right=0;points=[[0,0.5],[1,0.5]];portConstraint=eastwest;" parent="87" vertex="1"><mxGeometry y="60" width="160" height="30" as="geometry"/></mxCell><mxCell id="92" value="" style="shape=partialRectangle;connectable=0;fillColor=none;top=0;left=0;bottom=0;right=0;editable=1;overflow=hidden;" parent="91" vertex="1"><mxGeometry width="30" height="30" as="geometry"/></mxCell><mxCell id="93" value="Body" style="shape=partialRectangle;connectable=0;fillColor=none;top=0;left=0;bottom=0;right=0;align=left;spacingLeft=6;overflow=hidden;" parent="91" vertex="1"><mxGeometry x="30" width="130" height="30" as="geometry"/></mxCell><mxCell id="94" value="" style="shape=partialRectangle;collapsible=0;dropTarget=0;pointerEvents=0;fillColor=none;top=0;left=0;bottom=0;right=0;points=[[0,0.5],[1,0.5]];portConstraint=eastwest;" parent="87" vertex="1"><mxGeometry y="90" width="160" height="30" as="geometry"/></mxCell><mxCell id="95" value="" style="shape=partialRectangle;connectable=0;fillColor=none;top=0;left=0;bottom=0;right=0;editable=1;overflow=hidden;" parent="94" vertex="1"><mxGeometry width="30" height="30" as="geometry"/></mxCell><mxCell id="96" value="Rang" style="shape=partialRectangle;connectable=0;fillColor=none;top=0;left=0;bottom=0;right=0;align=left;spacingLeft=6;overflow=hidden;" parent="94" vertex="1"><mxGeometry x="30" width="130" height="30" as="geometry"/></mxCell><mxCell id="100" value="" style="edgeStyle=entityRelationEdgeStyle;fontSize=12;html=1;endArrow=ERzeroToMany;startArrow=ERmandOne;" parent="1" source="2" target="87" edge="1"><mxGeometry width="100" height="100" relative="1" as="geometry"><mxPoint x="680" y="530" as="sourcePoint"/><mxPoint x="600.0000000000001" y="690" as="targetPoint"/></mxGeometry></mxCell><mxCell id="101" value="Specifications" style="shape=table;startSize=30;container=1;collapsible=1;childLayout=tableLayout;fixedRows=1;rowLines=0;fontStyle=1;align=center;resizeLast=1;" parent="1" vertex="1"><mxGeometry x="1320" y="560" width="160" height="100" as="geometry"/></mxCell><mxCell id="102" value="" style="shape=partialRectangle;collapsible=0;dropTarget=0;pointerEvents=0;fillColor=none;top=0;left=0;bottom=1;right=0;points=[[0,0.5],[1,0.5]];portConstraint=eastwest;" parent="101" vertex="1"><mxGeometry y="30" width="160" height="30" as="geometry"/></mxCell><mxCell id="103" value="PK" style="shape=partialRectangle;connectable=0;fillColor=none;top=0;left=0;bottom=0;right=0;fontStyle=1;overflow=hidden;" parent="102" vertex="1"><mxGeometry width="30" height="30" as="geometry"/></mxCell><mxCell id="104" value="UniqueID" style="shape=partialRectangle;connectable=0;fillColor=none;top=0;left=0;bottom=0;right=0;align=left;spacingLeft=6;fontStyle=5;overflow=hidden;" parent="102" vertex="1"><mxGeometry x="30" width="130" height="30" as="geometry"/></mxCell><mxCell id="105" value="" style="shape=partialRectangle;collapsible=0;dropTarget=0;pointerEvents=0;fillColor=none;top=0;left=0;bottom=0;right=0;points=[[0,0.5],[1,0.5]];portConstraint=eastwest;" parent="101" vertex="1"><mxGeometry y="60" width="160" height="30" as="geometry"/></mxCell><mxCell id="106" value="" style="shape=partialRectangle;connectable=0;fillColor=none;top=0;left=0;bottom=0;right=0;editable=1;overflow=hidden;" parent="105" vertex="1"><mxGeometry width="30" height="30" as="geometry"/></mxCell><mxCell id="107" value="Name" style="shape=partialRectangle;connectable=0;fillColor=none;top=0;left=0;bottom=0;right=0;align=left;spacingLeft=6;overflow=hidden;" parent="105" vertex="1"><mxGeometry x="30" width="130" height="30" as="geometry"/></mxCell><mxCell id="114" value="" style="edgeStyle=entityRelationEdgeStyle;fontSize=12;html=1;endArrow=ERzeroToMany;startArrow=ERmandOne;" parent="1" source="101" target="2" edge="1"><mxGeometry width="100" height="100" relative="1" as="geometry"><mxPoint x="1040" y="-130" as="sourcePoint"/><mxPoint x="1120" y="-130" as="targetPoint"/></mxGeometry></mxCell><mxCell id="115" value="Image" style="shape=table;startSize=30;container=1;collapsible=1;childLayout=tableLayout;fixedRows=1;rowLines=0;fontStyle=1;align=center;resizeLast=1;" parent="1" vertex="1"><mxGeometry x="280" y="280" width="160" height="100" as="geometry"/></mxCell><mxCell id="116" value="" style="shape=partialRectangle;collapsible=0;dropTarget=0;pointerEvents=0;fillColor=none;top=0;left=0;bottom=1;right=0;points=[[0,0.5],[1,0.5]];portConstraint=eastwest;" parent="115" vertex="1"><mxGeometry y="30" width="160" height="30" as="geometry"/></mxCell><mxCell id="117" value="PK" style="shape=partialRectangle;connectable=0;fillColor=none;top=0;left=0;bottom=0;right=0;fontStyle=1;overflow=hidden;" parent="116" vertex="1"><mxGeometry width="30" height="30" as="geometry"/></mxCell><mxCell id="118" value="UniqueID" style="shape=partialRectangle;connectable=0;fillColor=none;top=0;left=0;bottom=0;right=0;align=left;spacingLeft=6;fontStyle=5;overflow=hidden;" parent="116" vertex="1"><mxGeometry x="30" width="130" height="30" as="geometry"/></mxCell><mxCell id="119" value="" style="shape=partialRectangle;collapsible=0;dropTarget=0;pointerEvents=0;fillColor=none;top=0;left=0;bottom=0;right=0;points=[[0,0.5],[1,0.5]];portConstraint=eastwest;" parent="115" vertex="1"><mxGeometry y="60" width="160" height="30" as="geometry"/></mxCell><mxCell id="120" value="" style="shape=partialRectangle;connectable=0;fillColor=none;top=0;left=0;bottom=0;right=0;editable=1;overflow=hidden;" parent="119" vertex="1"><mxGeometry width="30" height="30" as="geometry"/></mxCell><mxCell id="121" value="Path" style="shape=partialRectangle;connectable=0;fillColor=none;top=0;left=0;bottom=0;right=0;align=left;spacingLeft=6;overflow=hidden;" parent="119" vertex="1"><mxGeometry x="30" width="130" height="30" as="geometry"/></mxCell><mxCell id="128" value="Audio" style="shape=table;startSize=30;container=1;collapsible=1;childLayout=tableLayout;fixedRows=1;rowLines=0;fontStyle=1;align=center;resizeLast=1;" parent="1" vertex="1"><mxGeometry x="1270" y="140" width="160" height="100" as="geometry"/></mxCell><mxCell id="129" value="" style="shape=partialRectangle;collapsible=0;dropTarget=0;pointerEvents=0;fillColor=none;top=0;left=0;bottom=1;right=0;points=[[0,0.5],[1,0.5]];portConstraint=eastwest;" parent="128" vertex="1"><mxGeometry y="30" width="160" height="30" as="geometry"/></mxCell><mxCell id="130" value="PK" style="shape=partialRectangle;connectable=0;fillColor=none;top=0;left=0;bottom=0;right=0;fontStyle=1;overflow=hidden;" parent="129" vertex="1"><mxGeometry width="30" height="30" as="geometry"/></mxCell><mxCell id="131" value="UniqueID" style="shape=partialRectangle;connectable=0;fillColor=none;top=0;left=0;bottom=0;right=0;align=left;spacingLeft=6;fontStyle=5;overflow=hidden;" parent="129" vertex="1"><mxGeometry x="30" width="130" height="30" as="geometry"/></mxCell><mxCell id="132" value="" style="shape=partialRectangle;collapsible=0;dropTarget=0;pointerEvents=0;fillColor=none;top=0;left=0;bottom=0;right=0;points=[[0,0.5],[1,0.5]];portConstraint=eastwest;" parent="128" vertex="1"><mxGeometry y="60" width="160" height="30" as="geometry"/></mxCell><mxCell id="133" value="" style="shape=partialRectangle;connectable=0;fillColor=none;top=0;left=0;bottom=0;right=0;editable=1;overflow=hidden;" parent="132" vertex="1"><mxGeometry width="30" height="30" as="geometry"/></mxCell><mxCell id="134" value="Path" style="shape=partialRectangle;connectable=0;fillColor=none;top=0;left=0;bottom=0;right=0;align=left;spacingLeft=6;overflow=hidden;" parent="132" vertex="1"><mxGeometry x="30" width="130" height="30" as="geometry"/></mxCell><mxCell id="135" value="" style="edgeStyle=entityRelationEdgeStyle;fontSize=12;html=1;endArrow=ERzeroToMany;startArrow=ERmandOne;" parent="1" source="128" target="59" edge="1"><mxGeometry width="100" height="100" relative="1" as="geometry"><mxPoint x="920" y="380" as="sourcePoint"/><mxPoint x="1000" y="380" as="targetPoint"/></mxGeometry></mxCell><mxCell id="136" value="" style="edgeStyle=entityRelationEdgeStyle;fontSize=12;html=1;endArrow=ERmandOne;startArrow=ERmandOne;" parent="1" source="115" target="2" edge="1"><mxGeometry width="100" height="100" relative="1" as="geometry"><mxPoint x="600.0000000000001" y="140" as="sourcePoint"/><mxPoint x="680" y="530" as="targetPoint"/></mxGeometry></mxCell><mxCell id="137" value="User" style="shape=table;startSize=30;container=1;collapsible=1;childLayout=tableLayout;fixedRows=1;rowLines=0;fontStyle=1;align=center;resizeLast=1;" parent="1" vertex="1"><mxGeometry x="1000" y="975" width="160" height="100" as="geometry"/></mxCell><mxCell id="138" value="" style="shape=partialRectangle;collapsible=0;dropTarget=0;pointerEvents=0;fillColor=none;top=0;left=0;bottom=1;right=0;points=[[0,0.5],[1,0.5]];portConstraint=eastwest;" parent="137" vertex="1"><mxGeometry y="30" width="160" height="30" as="geometry"/></mxCell><mxCell id="139" value="PK" style="shape=partialRectangle;connectable=0;fillColor=none;top=0;left=0;bottom=0;right=0;fontStyle=1;overflow=hidden;" parent="138" vertex="1"><mxGeometry width="30" height="30" as="geometry"/></mxCell><mxCell id="140" value="UniqueID" style="shape=partialRectangle;connectable=0;fillColor=none;top=0;left=0;bottom=0;right=0;align=left;spacingLeft=6;fontStyle=5;overflow=hidden;" parent="138" vertex="1"><mxGeometry x="30" width="130" height="30" as="geometry"/></mxCell><mxCell id="141" value="" style="shape=partialRectangle;collapsible=0;dropTarget=0;pointerEvents=0;fillColor=none;top=0;left=0;bottom=0;right=0;points=[[0,0.5],[1,0.5]];portConstraint=eastwest;" parent="137" vertex="1"><mxGeometry y="60" width="160" height="30" as="geometry"/></mxCell><mxCell id="142" value="" style="shape=partialRectangle;connectable=0;fillColor=none;top=0;left=0;bottom=0;right=0;editable=1;overflow=hidden;" parent="141" vertex="1"><mxGeometry width="30" height="30" as="geometry"/></mxCell><mxCell id="143" value="Row 1" style="shape=partialRectangle;connectable=0;fillColor=none;top=0;left=0;bottom=0;right=0;align=left;spacingLeft=6;overflow=hidden;" parent="141" vertex="1"><mxGeometry x="30" width="130" height="30" as="geometry"/></mxCell><mxCell id="150" value="" style="edgeStyle=entityRelationEdgeStyle;fontSize=12;html=1;endArrow=ERzeroToMany;startArrow=ERmandOne;" parent="1" source="137" target="87" edge="1"><mxGeometry width="100" height="100" relative="1" as="geometry"><mxPoint x="900" y="970" as="sourcePoint"/><mxPoint x="980" y="970" as="targetPoint"/></mxGeometry></mxCell><mxCell id="151" value="" style="edgeStyle=entityRelationEdgeStyle;fontSize=12;html=1;endArrow=ERzeroToMany;startArrow=ERmandOne;" parent="1" source="137" target="2" edge="1"><mxGeometry width="100" height="100" relative="1" as="geometry"><mxPoint x="850" y="540" as="sourcePoint"/><mxPoint x="930" y="540" as="targetPoint"/></mxGeometry></mxCell><mxCell id="155" value="Likes" style="shape=table;startSize=30;container=1;collapsible=1;childLayout=tableLayout;fixedRows=1;rowLines=0;fontStyle=1;align=center;resizeLast=1;" parent="1" vertex="1"><mxGeometry x="1280" y="700" width="160" height="70" as="geometry"/></mxCell><mxCell id="156" value="" style="shape=partialRectangle;collapsible=0;dropTarget=0;pointerEvents=0;fillColor=none;top=0;left=0;bottom=1;right=0;points=[[0,0.5],[1,0.5]];portConstraint=eastwest;" parent="155" vertex="1"><mxGeometry y="30" width="160" height="30" as="geometry"/></mxCell><mxCell id="157" value="PK" style="shape=partialRectangle;connectable=0;fillColor=none;top=0;left=0;bottom=0;right=0;fontStyle=1;overflow=hidden;" parent="156" vertex="1"><mxGeometry width="30" height="30" as="geometry"/></mxCell><mxCell id="158" value="UniqueID" style="shape=partialRectangle;connectable=0;fillColor=none;top=0;left=0;bottom=0;right=0;align=left;spacingLeft=6;fontStyle=5;overflow=hidden;" parent="156" vertex="1"><mxGeometry x="30" width="130" height="30" as="geometry"/></mxCell><mxCell id="162" value="Baskets" style="shape=table;startSize=30;container=1;collapsible=1;childLayout=tableLayout;fixedRows=1;rowLines=0;fontStyle=1;align=center;resizeLast=1;" parent="1" vertex="1"><mxGeometry x="1280" y="800" width="160" height="100" as="geometry"/></mxCell><mxCell id="163" value="" style="shape=partialRectangle;collapsible=0;dropTarget=0;pointerEvents=0;fillColor=none;top=0;left=0;bottom=1;right=0;points=[[0,0.5],[1,0.5]];portConstraint=eastwest;" parent="162" vertex="1"><mxGeometry y="30" width="160" height="30" as="geometry"/></mxCell><mxCell id="164" value="PK" style="shape=partialRectangle;connectable=0;fillColor=none;top=0;left=0;bottom=0;right=0;fontStyle=1;overflow=hidden;" parent="163" vertex="1"><mxGeometry width="30" height="30" as="geometry"/></mxCell><mxCell id="165" value="UniqueID" style="shape=partialRectangle;connectable=0;fillColor=none;top=0;left=0;bottom=0;right=0;align=left;spacingLeft=6;fontStyle=5;overflow=hidden;" parent="163" vertex="1"><mxGeometry x="30" width="130" height="30" as="geometry"/></mxCell><mxCell id="166" value="" style="shape=partialRectangle;collapsible=0;dropTarget=0;pointerEvents=0;fillColor=none;top=0;left=0;bottom=0;right=0;points=[[0,0.5],[1,0.5]];portConstraint=eastwest;" parent="162" vertex="1"><mxGeometry y="60" width="160" height="30" as="geometry"/></mxCell><mxCell id="167" value="" style="shape=partialRectangle;connectable=0;fillColor=none;top=0;left=0;bottom=0;right=0;editable=1;overflow=hidden;" parent="166" vertex="1"><mxGeometry width="30" height="30" as="geometry"/></mxCell><mxCell id="168" value="State" style="shape=partialRectangle;connectable=0;fillColor=none;top=0;left=0;bottom=0;right=0;align=left;spacingLeft=6;overflow=hidden;" parent="166" vertex="1"><mxGeometry x="30" width="130" height="30" as="geometry"/></mxCell><mxCell id="169" value="" style="edgeStyle=entityRelationEdgeStyle;fontSize=12;html=1;endArrow=ERzeroToMany;startArrow=ERmandOne;" parent="1" source="137" target="162" edge="1"><mxGeometry width="100" height="100" relative="1" as="geometry"><mxPoint x="1000" y="855" as="sourcePoint"/><mxPoint x="1080" y="840" as="targetPoint"/></mxGeometry></mxCell><mxCell id="170" value="" style="edgeStyle=entityRelationEdgeStyle;fontSize=12;html=1;endArrow=ERzeroToMany;startArrow=ERmandOne;" parent="1" source="137" target="155" edge="1"><mxGeometry width="100" height="100" relative="1" as="geometry"><mxPoint x="1170" y="1035" as="sourcePoint"/><mxPoint x="1270" y="880" as="targetPoint"/></mxGeometry></mxCell><mxCell id="171" value="" style="edgeStyle=entityRelationEdgeStyle;fontSize=12;html=1;endArrow=ERzeroToMany;startArrow=ERmandOne;" parent="1" source="2" target="155" edge="1"><mxGeometry width="100" height="100" relative="1" as="geometry"><mxPoint x="1180" y="975" as="sourcePoint"/><mxPoint x="1280" y="820" as="targetPoint"/></mxGeometry></mxCell><mxCell id="172" value="" style="edgeStyle=entityRelationEdgeStyle;fontSize=12;html=1;endArrow=ERzeroToMany;startArrow=ERmandOne;" parent="1" source="2" target="162" edge="1"><mxGeometry width="100" height="100" relative="1" as="geometry"><mxPoint x="840" y="480" as="sourcePoint"/><mxPoint x="1290" y="830" as="targetPoint"/></mxGeometry></mxCell><mxCell id="173" value="Sale" style="shape=table;startSize=30;container=1;collapsible=1;childLayout=tableLayout;fixedRows=1;rowLines=0;fontStyle=1;align=center;resizeLast=1;" parent="1" vertex="1"><mxGeometry x="1480" y="40" width="160" height="130" as="geometry"/></mxCell><mxCell id="174" value="" style="shape=partialRectangle;collapsible=0;dropTarget=0;pointerEvents=0;fillColor=none;top=0;left=0;bottom=1;right=0;points=[[0,0.5],[1,0.5]];portConstraint=eastwest;" parent="173" vertex="1"><mxGeometry y="30" width="160" height="30" as="geometry"/></mxCell><mxCell id="175" value="PK" style="shape=partialRectangle;connectable=0;fillColor=none;top=0;left=0;bottom=0;right=0;fontStyle=1;overflow=hidden;" parent="174" vertex="1"><mxGeometry width="30" height="30" as="geometry"/></mxCell><mxCell id="176" value="UniqueID" style="shape=partialRectangle;connectable=0;fillColor=none;top=0;left=0;bottom=0;right=0;align=left;spacingLeft=6;fontStyle=5;overflow=hidden;" parent="174" vertex="1"><mxGeometry x="30" width="130" height="30" as="geometry"/></mxCell><mxCell id="177" value="" style="shape=partialRectangle;collapsible=0;dropTarget=0;pointerEvents=0;fillColor=none;top=0;left=0;bottom=0;right=0;points=[[0,0.5],[1,0.5]];portConstraint=eastwest;" parent="173" vertex="1"><mxGeometry y="60" width="160" height="30" as="geometry"/></mxCell><mxCell id="178" value="" style="shape=partialRectangle;connectable=0;fillColor=none;top=0;left=0;bottom=0;right=0;editable=1;overflow=hidden;" parent="177" vertex="1"><mxGeometry width="30" height="30" as="geometry"/></mxCell><mxCell id="179" value="Count" style="shape=partialRectangle;connectable=0;fillColor=none;top=0;left=0;bottom=0;right=0;align=left;spacingLeft=6;overflow=hidden;" parent="177" vertex="1"><mxGeometry x="30" width="130" height="30" as="geometry"/></mxCell><mxCell id="180" value="" style="shape=partialRectangle;collapsible=0;dropTarget=0;pointerEvents=0;fillColor=none;top=0;left=0;bottom=0;right=0;points=[[0,0.5],[1,0.5]];portConstraint=eastwest;" parent="173" vertex="1"><mxGeometry y="90" width="160" height="30" as="geometry"/></mxCell><mxCell id="181" value="" style="shape=partialRectangle;connectable=0;fillColor=none;top=0;left=0;bottom=0;right=0;editable=1;overflow=hidden;" parent="180" vertex="1"><mxGeometry width="30" height="30" as="geometry"/></mxCell><mxCell id="182" value="Percent" style="shape=partialRectangle;connectable=0;fillColor=none;top=0;left=0;bottom=0;right=0;align=left;spacingLeft=6;overflow=hidden;" parent="180" vertex="1"><mxGeometry x="30" width="130" height="30" as="geometry"/></mxCell><mxCell id="198" value="Baskets" style="shape=table;startSize=30;container=1;collapsible=1;childLayout=tableLayout;fixedRows=1;rowLines=0;fontStyle=1;align=center;resizeLast=1;" vertex="1" parent="1"><mxGeometry x="1280" y="920" width="160" height="100" as="geometry"/></mxCell><mxCell id="199" value="" style="shape=partialRectangle;collapsible=0;dropTarget=0;pointerEvents=0;fillColor=none;top=0;left=0;bottom=1;right=0;points=[[0,0.5],[1,0.5]];portConstraint=eastwest;" vertex="1" parent="198"><mxGeometry y="30" width="160" height="30" as="geometry"/></mxCell><mxCell id="200" value="PK" style="shape=partialRectangle;connectable=0;fillColor=none;top=0;left=0;bottom=0;right=0;fontStyle=1;overflow=hidden;" vertex="1" parent="199"><mxGeometry width="30" height="30" as="geometry"/></mxCell><mxCell id="201" value="UniqueID" style="shape=partialRectangle;connectable=0;fillColor=none;top=0;left=0;bottom=0;right=0;align=left;spacingLeft=6;fontStyle=5;overflow=hidden;" vertex="1" parent="199"><mxGeometry x="30" width="130" height="30" as="geometry"/></mxCell><mxCell id="202" value="" style="shape=partialRectangle;collapsible=0;dropTarget=0;pointerEvents=0;fillColor=none;top=0;left=0;bottom=0;right=0;points=[[0,0.5],[1,0.5]];portConstraint=eastwest;" vertex="1" parent="198"><mxGeometry y="60" width="160" height="30" as="geometry"/></mxCell><mxCell id="203" value="" style="shape=partialRectangle;connectable=0;fillColor=none;top=0;left=0;bottom=0;right=0;editable=1;overflow=hidden;" vertex="1" parent="202"><mxGeometry width="30" height="30" as="geometry"/></mxCell><mxCell id="204" value="Expiration date" style="shape=partialRectangle;connectable=0;fillColor=none;top=0;left=0;bottom=0;right=0;align=left;spacingLeft=6;overflow=hidden;" vertex="1" parent="202"><mxGeometry x="30" width="130" height="30" as="geometry"/></mxCell><mxCell id="205" value="" style="edgeStyle=entityRelationEdgeStyle;fontSize=12;html=1;endArrow=ERzeroToMany;startArrow=ERmandOne;" edge="1" parent="1" source="2" target="198"><mxGeometry width="100" height="100" relative="1" as="geometry"><mxPoint x="840" y="545" as="sourcePoint"/><mxPoint x="1290" y="880" as="targetPoint"/></mxGeometry></mxCell><mxCell id="206" value="" style="edgeStyle=entityRelationEdgeStyle;fontSize=12;html=1;endArrow=ERzeroToMany;startArrow=ERmandOne;" edge="1" parent="1" source="198" target="137"><mxGeometry width="100" height="100" relative="1" as="geometry"><mxPoint x="850" y="555" as="sourcePoint"/><mxPoint x="1300" y="890" as="targetPoint"/></mxGeometry></mxCell><mxCell id="207" value="" style="edgeStyle=entityRelationEdgeStyle;fontSize=12;html=1;endArrow=ERzeroToMany;startArrow=ERzeroToMany;startFill=1;" edge="1" parent="1" source="173" target="59"><mxGeometry width="100" height="100" relative="1" as="geometry"><mxPoint x="1440" y="200" as="sourcePoint"/><mxPoint x="1300" y="500" as="targetPoint"/></mxGeometry></mxCell></root></mxGraphModel></diagram></mxfile>